<mxfile host="app.diagrams.net" modified="2024-03-19T15:16:14.790Z" agent="Mozilla/5.0 (Windows NT 10.0; Win64; x64) AppleWebKit/537.36 (KHTML, like Gecko) Chrome/122.0.0.0 Safari/537.36" etag="1yYRQf_ciG5XvS_MiFyC" version="24.0.7" type="device">
  <diagram name="PÃ¡gina-1" id="50DoaoW_u80-VM5AmWqG">
    <mxGraphModel dx="1434" dy="778" grid="1" gridSize="10" guides="1" tooltips="1" connect="1" arrows="1" fold="1" page="1" pageScale="1" pageWidth="827" pageHeight="1169" math="0" shadow="0">
      <root>
        <mxCell id="0" />
        <mxCell id="1" parent="0" />
        <mxCell id="ylM9zO-QIIoKgGbu1Kdk-2" style="edgeStyle=orthogonalEdgeStyle;rounded=0;orthogonalLoop=1;jettySize=auto;html=1;" edge="1" parent="1" source="ylM9zO-QIIoKgGbu1Kdk-1">
          <mxGeometry relative="1" as="geometry">
            <mxPoint x="414" y="180" as="targetPoint" />
          </mxGeometry>
        </mxCell>
        <mxCell id="ylM9zO-QIIoKgGbu1Kdk-1" value="INICIO" style="rounded=1;whiteSpace=wrap;html=1;" vertex="1" parent="1">
          <mxGeometry x="354" y="30" width="120" height="60" as="geometry" />
        </mxCell>
        <mxCell id="ylM9zO-QIIoKgGbu1Kdk-4" style="edgeStyle=orthogonalEdgeStyle;rounded=0;orthogonalLoop=1;jettySize=auto;html=1;" edge="1" parent="1" source="ylM9zO-QIIoKgGbu1Kdk-3">
          <mxGeometry relative="1" as="geometry">
            <mxPoint x="690" y="270" as="targetPoint" />
          </mxGeometry>
        </mxCell>
        <mxCell id="ylM9zO-QIIoKgGbu1Kdk-7" style="edgeStyle=orthogonalEdgeStyle;rounded=0;orthogonalLoop=1;jettySize=auto;html=1;" edge="1" parent="1" source="ylM9zO-QIIoKgGbu1Kdk-3">
          <mxGeometry relative="1" as="geometry">
            <mxPoint x="130" y="270" as="targetPoint" />
          </mxGeometry>
        </mxCell>
        <mxCell id="ylM9zO-QIIoKgGbu1Kdk-3" value="LAMPADA SUPLENTE?" style="rounded=0;whiteSpace=wrap;html=1;" vertex="1" parent="1">
          <mxGeometry x="324" y="180" width="180" height="60" as="geometry" />
        </mxCell>
        <mxCell id="ylM9zO-QIIoKgGbu1Kdk-11" style="edgeStyle=orthogonalEdgeStyle;rounded=0;orthogonalLoop=1;jettySize=auto;html=1;entryX=1;entryY=0.5;entryDx=0;entryDy=0;" edge="1" parent="1" source="ylM9zO-QIIoKgGbu1Kdk-5" target="ylM9zO-QIIoKgGbu1Kdk-8">
          <mxGeometry relative="1" as="geometry" />
        </mxCell>
        <mxCell id="ylM9zO-QIIoKgGbu1Kdk-5" value="COMPRAR LAMPADA&amp;nbsp;" style="rounded=0;whiteSpace=wrap;html=1;" vertex="1" parent="1">
          <mxGeometry x="620" y="270" width="140" height="60" as="geometry" />
        </mxCell>
        <mxCell id="ylM9zO-QIIoKgGbu1Kdk-12" style="edgeStyle=orthogonalEdgeStyle;rounded=0;orthogonalLoop=1;jettySize=auto;html=1;" edge="1" parent="1" source="ylM9zO-QIIoKgGbu1Kdk-8" target="ylM9zO-QIIoKgGbu1Kdk-13">
          <mxGeometry relative="1" as="geometry">
            <mxPoint x="130" y="420" as="targetPoint" />
          </mxGeometry>
        </mxCell>
        <mxCell id="ylM9zO-QIIoKgGbu1Kdk-8" value="PEGAR A SUPLENTE" style="rounded=0;whiteSpace=wrap;html=1;" vertex="1" parent="1">
          <mxGeometry x="70" y="270" width="120" height="60" as="geometry" />
        </mxCell>
        <mxCell id="ylM9zO-QIIoKgGbu1Kdk-9" value="SIM" style="text;html=1;align=center;verticalAlign=middle;whiteSpace=wrap;rounded=0;" vertex="1" parent="1">
          <mxGeometry x="190" y="170" width="60" height="30" as="geometry" />
        </mxCell>
        <mxCell id="ylM9zO-QIIoKgGbu1Kdk-10" value="NAO" style="text;html=1;align=center;verticalAlign=middle;whiteSpace=wrap;rounded=0;" vertex="1" parent="1">
          <mxGeometry x="570" y="170" width="60" height="30" as="geometry" />
        </mxCell>
        <mxCell id="ylM9zO-QIIoKgGbu1Kdk-14" style="edgeStyle=orthogonalEdgeStyle;rounded=0;orthogonalLoop=1;jettySize=auto;html=1;" edge="1" parent="1" source="ylM9zO-QIIoKgGbu1Kdk-13">
          <mxGeometry relative="1" as="geometry">
            <mxPoint x="130" y="510" as="targetPoint" />
          </mxGeometry>
        </mxCell>
        <mxCell id="ylM9zO-QIIoKgGbu1Kdk-13" value="PEGAR O ESCADOTE" style="rounded=0;whiteSpace=wrap;html=1;" vertex="1" parent="1">
          <mxGeometry x="70" y="390" width="120" height="60" as="geometry" />
        </mxCell>
        <mxCell id="ylM9zO-QIIoKgGbu1Kdk-16" style="edgeStyle=orthogonalEdgeStyle;rounded=0;orthogonalLoop=1;jettySize=auto;html=1;" edge="1" parent="1" source="ylM9zO-QIIoKgGbu1Kdk-15" target="ylM9zO-QIIoKgGbu1Kdk-17">
          <mxGeometry relative="1" as="geometry">
            <mxPoint x="130" y="640" as="targetPoint" />
          </mxGeometry>
        </mxCell>
        <mxCell id="ylM9zO-QIIoKgGbu1Kdk-15" value="TIRAR A LAMPADA QUEIMADA" style="rounded=0;whiteSpace=wrap;html=1;" vertex="1" parent="1">
          <mxGeometry x="70" y="510" width="120" height="60" as="geometry" />
        </mxCell>
        <mxCell id="ylM9zO-QIIoKgGbu1Kdk-18" style="edgeStyle=orthogonalEdgeStyle;rounded=0;orthogonalLoop=1;jettySize=auto;html=1;" edge="1" parent="1" source="ylM9zO-QIIoKgGbu1Kdk-17" target="ylM9zO-QIIoKgGbu1Kdk-19">
          <mxGeometry relative="1" as="geometry">
            <mxPoint x="130" y="730" as="targetPoint" />
          </mxGeometry>
        </mxCell>
        <mxCell id="ylM9zO-QIIoKgGbu1Kdk-17" value="METER A LAMPADA NOVA" style="rounded=0;whiteSpace=wrap;html=1;" vertex="1" parent="1">
          <mxGeometry x="70" y="610" width="120" height="60" as="geometry" />
        </mxCell>
        <mxCell id="ylM9zO-QIIoKgGbu1Kdk-20" style="edgeStyle=orthogonalEdgeStyle;rounded=0;orthogonalLoop=1;jettySize=auto;html=1;" edge="1" parent="1" source="ylM9zO-QIIoKgGbu1Kdk-19" target="ylM9zO-QIIoKgGbu1Kdk-21">
          <mxGeometry relative="1" as="geometry">
            <mxPoint x="280" y="740" as="targetPoint" />
          </mxGeometry>
        </mxCell>
        <mxCell id="ylM9zO-QIIoKgGbu1Kdk-19" value="ARRUMAR ESCADOTE" style="rounded=1;whiteSpace=wrap;html=1;" vertex="1" parent="1">
          <mxGeometry x="70" y="710" width="120" height="60" as="geometry" />
        </mxCell>
        <mxCell id="ylM9zO-QIIoKgGbu1Kdk-21" value="FIM" style="rounded=1;whiteSpace=wrap;html=1;" vertex="1" parent="1">
          <mxGeometry x="280" y="710" width="120" height="60" as="geometry" />
        </mxCell>
      </root>
    </mxGraphModel>
  </diagram>
</mxfile>
